<svg xmlns="http://www.w3.org/2000/svg" viewBox="0 0 180 180">
  <defs>
    <linearGradient id="bg" x1="0%" y1="0%" x2="100%" y2="100%">
      <stop offset="0%" style="stop-color:#7c3aed"/>
      <stop offset="100%" style="stop-color:#4f46e5"/>
    </linearGradient>
    <linearGradient id="wheel" x1="0%" y1="0%" x2="100%" y2="100%">
      <stop offset="0%" style="stop-color:#fbbf24"/>
      <stop offset="100%" style="stop-color:#f59e0b"/>
    </linearGradient>
  </defs>
  
  <!-- Background -->
  <rect width="180" height="180" rx="40" fill="url(#bg)"/>
  
  <!-- Roulette wheel -->
  <g transform="translate(90, 90)">
    <!-- Outer ring -->
    <circle r="65" fill="none" stroke="#fbbf24" stroke-width="8"/>
    
    <!-- Wheel segments -->
    <path d="M0,-55 A55,55 0 0,1 47.63,27.5 L0,0 Z" fill="#ef4444"/>
    <path d="M47.63,27.5 A55,55 0 0,1 0,55 L0,0 Z" fill="#22c55e"/>
    <path d="M0,55 A55,55 0 0,1 -47.63,27.5 L0,0 Z" fill="#3b82f6"/>
    <path d="M-47.63,27.5 A55,55 0 0,1 -47.63,-27.5 L0,0 Z" fill="#eab308"/>
    <path d="M-47.63,-27.5 A55,55 0 0,1 0,-55 L0,0 Z" fill="#a855f7"/>
    <path d="M0,-55 A55,55 0 0,1 47.63,-27.5 L0,0 Z" fill="#ec4899"/>
    
    <!-- Center hub -->
    <circle r="18" fill="url(#wheel)"/>
    <circle r="12" fill="#1e1b4b"/>
    <circle r="6" fill="#fbbf24"/>
  </g>
  
  <!-- Pointer -->
  <polygon points="90,15 80,35 100,35" fill="#facc15"/>
</svg>
