<svg xmlns="http://www.w3.org/2000/svg" viewBox="0 0 1200 630">
  <defs>
    <linearGradient id="bgGrad" x1="0%" y1="0%" x2="100%" y2="100%">
      <stop offset="0%" style="stop-color:#581c87"/>
      <stop offset="50%" style="stop-color:#3730a3"/>
      <stop offset="100%" style="stop-color:#1e3a8a"/>
    </linearGradient>
    <linearGradient id="wheelGrad" x1="0%" y1="0%" x2="100%" y2="100%">
      <stop offset="0%" style="stop-color:#fbbf24"/>
      <stop offset="100%" style="stop-color:#f59e0b"/>
    </linearGradient>
    <linearGradient id="textGrad" x1="0%" y1="0%" x2="100%" y2="0%">
      <stop offset="0%" style="stop-color:#fbbf24"/>
      <stop offset="50%" style="stop-color:#f472b6"/>
      <stop offset="100%" style="stop-color:#a78bfa"/>
    </linearGradient>
  </defs>
  
  <!-- Background -->
  <rect width="1200" height="630" fill="url(#bgGrad)"/>
  
  <!-- Decorative circles -->
  <circle cx="100" cy="100" r="150" fill="#7c3aed" opacity="0.2"/>
  <circle cx="1100" cy="530" r="200" fill="#4f46e5" opacity="0.2"/>
  
  <!-- Roulette wheel -->
  <g transform="translate(300, 315)">
    <!-- Outer glow -->
    <circle r="180" fill="none" stroke="#fbbf24" stroke-width="4" opacity="0.3"/>
    <circle r="160" fill="none" stroke="#fbbf24" stroke-width="8"/>
    
    <!-- Wheel segments -->
    <g>
      <path d="M0,-140 A140,140 0 0,1 121.24,70 L0,0 Z" fill="#ef4444"/>
      <path d="M121.24,70 A140,140 0 0,1 0,140 L0,0 Z" fill="#22c55e"/>
      <path d="M0,140 A140,140 0 0,1 -121.24,70 L0,0 Z" fill="#3b82f6"/>
      <path d="M-121.24,70 A140,140 0 0,1 -121.24,-70 L0,0 Z" fill="#eab308"/>
      <path d="M-121.24,-70 A140,140 0 0,1 0,-140 L0,0 Z" fill="#a855f7"/>
      <path d="M0,-140 A140,140 0 0,1 121.24,-70 L0,0 Z" fill="#ec4899"/>
    </g>
    
    <!-- Center hub -->
    <circle r="45" fill="url(#wheelGrad)"/>
    <circle r="30" fill="#1e1b4b"/>
    <circle r="15" fill="#fbbf24"/>
    
    <!-- Pointer -->
    <polygon points="0,-175 -15,-145 15,-145" fill="#facc15"/>
  </g>
  
  <!-- Text content -->
  <g transform="translate(520, 280)">
    <text font-family="Arial, sans-serif" font-size="72" font-weight="bold" fill="url(#textGrad)">
      🎰 Ruleta de Sorteos
    </text>
    <text y="80" font-family="Arial, sans-serif" font-size="32" fill="#e2e8f0">
      Elige ganadores al azar de forma fácil y divertida
    </text>
    <text y="130" font-family="Arial, sans-serif" font-size="24" fill="#94a3b8">
      ✓ 100% Gratis  ✓ Personalizable  ✓ Sin registro
    </text>
  </g>
  
  <!-- URL -->
  <text x="600" y="580" text-anchor="middle" font-family="Arial, sans-serif" font-size="28" font-weight="bold" fill="#a78bfa">
    ruletasorteos.es
  </text>
</svg>
